<svg width="23" height="23" viewBox="0 0 23 23" fill="none" xmlns="http://www.w3.org/2000/svg">
<path d="M7.33193 2H15.054C17.9958 2 20.386 4.39018 20.386 7.33193V15.054C20.386 16.4682 19.8242 17.8243 18.8243 18.8243C17.8243 19.8242 16.4682 20.386 15.054 20.386H7.33193C4.39018 20.386 2 17.9958 2 15.054V7.33193C2 5.91781 2.56176 4.56162 3.56169 3.56169C4.56162 2.56176 5.91781 2 7.33193 2ZM7.14807 3.8386C6.27034 3.8386 5.42857 4.18727 4.80792 4.80792C4.18727 5.42857 3.8386 6.27034 3.8386 7.14807V15.2379C3.8386 17.0673 5.31867 18.5474 7.14807 18.5474H15.2379C16.1156 18.5474 16.9574 18.1987 17.578 17.578C18.1987 16.9574 18.5474 16.1156 18.5474 15.2379V7.14807C18.5474 5.31867 17.0673 3.8386 15.2379 3.8386H7.14807ZM16.0193 5.21754C16.3241 5.21754 16.6164 5.33861 16.8319 5.55411C17.0474 5.76962 17.1684 6.0619 17.1684 6.36667C17.1684 6.67143 17.0474 6.96372 16.8319 7.17922C16.6164 7.39472 16.3241 7.51579 16.0193 7.51579C15.7145 7.51579 15.4222 7.39472 15.2067 7.17922C14.9912 6.96372 14.8702 6.67143 14.8702 6.36667C14.8702 6.0619 14.9912 5.76962 15.2067 5.55411C15.4222 5.33861 15.7145 5.21754 16.0193 5.21754ZM11.193 6.59649C12.412 6.59649 13.5812 7.08076 14.4432 7.94277C15.3052 8.80478 15.7895 9.97392 15.7895 11.193C15.7895 12.412 15.3052 13.5812 14.4432 14.4432C13.5812 15.3052 12.412 15.7895 11.193 15.7895C9.97392 15.7895 8.80478 15.3052 7.94277 14.4432C7.08076 13.5812 6.59649 12.412 6.59649 11.193C6.59649 9.97392 7.08076 8.80478 7.94277 7.94277C8.80478 7.08076 9.97392 6.59649 11.193 6.59649ZM11.193 8.43509C10.4615 8.43509 9.76006 8.72565 9.24286 9.24286C8.72565 9.76006 8.43509 10.4615 8.43509 11.193C8.43509 11.9244 8.72565 12.6259 9.24286 13.1431C9.76006 13.6603 10.4615 13.9509 11.193 13.9509C11.9244 13.9509 12.6259 13.6603 13.1431 13.1431C13.6603 12.6259 13.9509 11.9244 13.9509 11.193C13.9509 10.4615 13.6603 9.76006 13.1431 9.24286C12.6259 8.72565 11.9244 8.43509 11.193 8.43509Z" fill="white"/>
</svg>
