<svg width="23" height="23" viewBox="0 0 23 23" fill="none" xmlns="http://www.w3.org/2000/svg">
<path fill-rule="evenodd" clip-rule="evenodd" d="M8.82947 8.40659H12.2437V10.1073C12.7356 9.12916 13.9968 8.25031 15.8915 8.25031C19.5237 8.25031 20.386 10.1974 20.386 13.7698V20.386H16.7088V14.5834C16.7088 12.5489 16.2169 11.4017 14.9649 11.4017C13.2283 11.4017 12.5067 12.6381 12.5067 14.5824V20.386H8.82947V8.40659ZM2.524 20.2297H6.20119V8.25031H2.524V20.2297ZM6.72795 4.34421C6.72809 4.65243 6.66696 4.9576 6.54812 5.24199C6.42929 5.52637 6.25511 5.7843 6.03572 6.00079C5.81568 6.21969 5.55466 6.39309 5.26758 6.51107C4.98049 6.62906 4.67298 6.68932 4.3626 6.68842C3.73711 6.68702 3.13709 6.44048 2.69131 6.00171C2.4728 5.78443 2.29926 5.5262 2.18064 5.24179C2.06202 4.95738 2.00063 4.65237 2 4.34421C2 3.72185 2.24821 3.12614 2.69223 2.68672C3.1369 2.24626 3.73764 1.99943 4.36352 2C4.99048 2 5.5917 2.24729 6.03572 2.68672C6.47974 3.12614 6.72795 3.72185 6.72795 4.34421Z" fill="white"/>
</svg>
