<svg width="23" height="23" viewBox="0 0 23 23" fill="none" xmlns="http://www.w3.org/2000/svg">
<g clip-path="url(#clip0_100_51)">
<path d="M22.0632 6.10929C21.2511 6.47841 20.3757 6.72098 19.4687 6.83699C20.3968 6.27803 21.114 5.39213 21.4515 4.32694C20.5761 4.85426 19.6058 5.22339 18.5828 5.43432C17.7497 4.52732 16.579 4 15.2502 4C12.7717 4 10.7468 6.02492 10.7468 8.52442C10.7468 8.883 10.789 9.23104 10.8628 9.55798C7.1083 9.36814 3.76508 7.5647 1.53978 4.83317C1.14956 5.4976 0.928087 6.27803 0.928087 7.10065C0.928087 8.67208 1.71907 10.0642 2.94246 10.8552C2.19366 10.8552 1.4976 10.6443 0.885901 10.3279V10.3595C0.885901 12.5532 2.44677 14.3882 4.51388 14.7996C3.85034 14.9819 3.15343 15.0072 2.47841 14.8734C2.76486 15.7724 3.32586 16.5591 4.08255 17.1229C4.83923 17.6866 5.75356 17.999 6.69699 18.0162C5.0978 19.2823 3.11543 19.9667 1.07574 19.9568C0.717158 19.9568 0.358579 19.9357 0 19.8935C2.00382 21.1802 4.38732 21.929 6.93956 21.929C15.2502 21.929 19.8168 15.0316 19.8168 9.05175C19.8168 8.85136 19.8168 8.66153 19.8062 8.46115C20.6921 7.82836 21.4515 7.02683 22.0632 6.10929Z" fill="white"/>
</g>
<defs>
<clipPath id="clip0_100_51">
<rect width="22.0632" height="22.0632" fill="white"/>
</clipPath>
</defs>
</svg>
