<svg width="26" height="26" viewBox="0 0 26 26" fill="none" xmlns="http://www.w3.org/2000/svg">
<path d="M10.5801 15.7251L16.1465 12.5076L10.5801 9.29006V15.7251ZM22.9784 7.32736C23.1178 7.83144 23.2143 8.50712 23.2787 9.36513C23.3538 10.2231 23.3859 10.9632 23.3859 11.6067L23.4503 12.5076C23.4503 14.8564 23.2787 16.5832 22.9784 17.6878C22.7103 18.6531 22.0882 19.2752 21.1229 19.5433C20.6189 19.6827 19.6965 19.7793 18.2808 19.8436C16.8865 19.9187 15.6102 19.9509 14.4304 19.9509L12.7251 20.0152C8.23131 20.0152 5.43205 19.8436 4.32736 19.5433C3.36209 19.2752 2.74004 18.6531 2.47191 17.6878C2.33248 17.1838 2.23595 16.5081 2.1716 15.6501C2.09653 14.7921 2.06435 14.052 2.06435 13.4085L2 12.5076C2 10.1588 2.1716 8.43205 2.47191 7.32736C2.74004 6.36209 3.36209 5.74004 4.32736 5.47191C4.83144 5.33248 5.7538 5.23595 7.16952 5.1716C8.56379 5.09653 9.84008 5.06435 11.0198 5.06435L12.7251 5C17.219 5 20.0182 5.1716 21.1229 5.47191C22.0882 5.74004 22.7103 6.36209 22.9784 7.32736Z" fill="white"/>
</svg>
